<svg xmlns="http://www.w3.org/2000/svg" viewBox="0 0 125 108"><defs><style>.cls-3{fill:#cdc000}.cls-10,.cls-5,.cls-6,.cls-7{fill:none}.cls-10,.cls-11,.cls-5{stroke:#c8bb00}.cls-10,.cls-11,.cls-5,.cls-6,.cls-7{stroke-linecap:round}.cls-5,.cls-6,.cls-7{stroke-miterlimit:10}.cls-6,.cls-7{stroke:#ffffac}.cls-7{stroke-width:.8px}.cls-9{fill:#dddf62}.cls-10,.cls-11{stroke-linejoin:round}.cls-11{fill:#e6e015}</style></defs><g id="Language_Icons" data-name="Language Icons"><circle cx="63.93" cy="60.66" r="46.84" fill="#e7df2c" opacity=".5"/><path d="M93.4 41.88H34.46a1.65 1.65 0 00-1.65 1.65v52.14C41 102.5 51.44 107.5 62.89 107.5c12.46 0 23.76-4.31 32.15-12.23V43.53a1.65 1.65 0 00-1.64-1.65z" fill="#f7f4eb"/><circle class="cls-3" cx="89.69" cy="10.06" r="1.04"/><circle class="cls-3" cx="15.4" cy="27.85" r="1.04"/><circle class="cls-3" cx="64.32" cy="13.82" r="1.68"/><circle class="cls-3" cx="17.09" cy="60.66" r="1.68"/><circle class="cls-3" cx="110.77" cy="60.66" r="1.68"/><g opacity=".7"><path class="cls-5" d="M4.96 38.65h5.46M7.69 41.38v-5.46M117.91 78.03h5.46M120.64 80.76V75.3M45.43 1.65v1.4M45.43 6.63v1.4M48.68 4.9h-1.4M43.67 4.9h-1.41M47.77 2.55l-.99 1M47.77 7.13l-.99-1M43.07 2.55l.99 1M43.07 7.13l.99-1"/><circle class="cls-5" cx="98.88" cy="9.2" r="2.1"/></g><path class="cls-6" d="M98.22 17.92h5.46M100.95 20.66v-5.47"/><path class="cls-7" d="M122.12 64.44v1.13M122.12 68.46v1.14M124.75 67.07h-1.13M120.7 67.07h-1.13M124.02 65.17l-.81.81M124.02 68.86l-.81-.8M120.22 65.17l.8.81M120.22 68.86l.8-.8"/><circle class="cls-6" cx="2.85" cy="29.95" r="2.1"/><path fill="#eeea60" d="M32.81 42.2h62.23v11.6H32.81z"/><path class="cls-9" d="M71.82 71.57a4.85 4.85 0 006.35.44c.09-.13.19-.27.27-.41a4.86 4.86 0 01-6.65-6.6 3.74 3.74 0 00-.42.27 4.86 4.86 0 00.45 6.3zM66.42 77a9.74 9.74 0 01-1.53-11.78 11 11 0 00-1.54 1.12c-3.15 3.76-2.31 8.83 1.3 12.43s8.67 4.45 12.43 1.3a10.23 10.23 0 001.12-1.54A9.75 9.75 0 0166.42 77z"/><path class="cls-9" d="M58.66 85a16.24 16.24 0 01-2.55-19.63 16.94 16.94 0 00-2.71 2c-5.89 6.35-5.07 15.6 1.13 21.8s15.46 7 21.8 1.14a16.64 16.64 0 002-2.72A16.24 16.24 0 0158.66 85z"/><path class="cls-10" d="M72.56 70.83a4.86 4.86 0 01-.76-5.89 4.87 4.87 0 105.89 7.66 5.24 5.24 0 00.76-1 4.89 4.89 0 01-5.89-.77z"/><path class="cls-10" d="M66.42 77a9.75 9.75 0 01-1.53-11.78 9.72 9.72 0 00-2 1.53c-3.8 3.81-3.07 9.25.74 13s9.24 4.54 13.05.73a10 10 0 001.53-2A9.76 9.76 0 0166.42 77z"/><path class="cls-10" d="M58.43 85a16.23 16.23 0 01-2.56-19.63 16.17 16.17 0 00-3.34 2.55c-6.35 6.35-5.61 15.9.73 22.25s15.9 7.07 22.24.73a16 16 0 002.56-3.35A16.23 16.23 0 0158.43 85z"/><path class="cls-5" d="M93.4 41.88H34.46a1.65 1.65 0 00-1.65 1.65v52.14C41 102.5 51.44 107.5 62.89 107.5c12.46 0 23.76-3.9 32.15-11.83V43.53a1.65 1.65 0 00-1.64-1.65zM33.48 53.34h59.19"/><circle class="cls-11" cx="38.77" cy="48.04" r="1.04"/><circle class="cls-11" cx="42.79" cy="48.04" r="1.04"/><circle class="cls-11" cx="46.8" cy="48.04" r="1.04"/><path class="cls-5" d="M17.66 53.34a46.87 46.87 0 0138.59-38.9M110.15 68.28a46.85 46.85 0 01-92.61-1M71.46 14.42a46.87 46.87 0 0138.81 39.38"/></g></svg>